<mxfile host="app.diagrams.net" modified="2023-12-01T10:31:38.184Z" agent="Mozilla/5.0 (Macintosh; Intel Mac OS X 10_15_7) AppleWebKit/537.36 (KHTML, like Gecko) Chrome/119.0.0.0 Safari/537.36" etag="R_Tm0UrP3wVzPArr6hbU" version="22.1.5" type="device">
  <diagram name="Page-1" id="-yVWf5U5GomzzCzLPF7r">
    <mxGraphModel dx="187" dy="-507" grid="1" gridSize="10" guides="1" tooltips="1" connect="1" arrows="1" fold="1" page="1" pageScale="1" pageWidth="827" pageHeight="1169" math="0" shadow="0">
      <root>
        <mxCell id="0" />
        <mxCell id="1" parent="0" />
        <mxCell id="gJZYsZQYxABZpz7uiAY4-1" value="" style="shape=flexArrow;endArrow=classic;html=1;rounded=0;strokeWidth=3;" edge="1" parent="1">
          <mxGeometry width="50" height="50" relative="1" as="geometry">
            <mxPoint x="1250" y="1862.75" as="sourcePoint" />
            <mxPoint x="1290" y="1862.25" as="targetPoint" />
          </mxGeometry>
        </mxCell>
        <mxCell id="gJZYsZQYxABZpz7uiAY4-2" value="Calibrate&#xa;&amp; Clean" style="shape=image;verticalLabelPosition=bottom;labelBackgroundColor=default;verticalAlign=top;aspect=fixed;imageAspect=0;image=data:image/svg+xml,PHN2ZyB4bWxucz0iaHR0cDovL3d3dy53My5vcmcvMjAwMC9zdmciIGZpbGw9Im5vbmUiIHZpZXdCb3g9IjAgMCAxNiAxNiIgaGVpZ2h0PSI4MDBweCIgd2lkdGg9IjgwMHB4Ij4mI3hhOyAgPHBhdGggZmlsbD0iIzAwMDAwMCIgZD0iTTUuNzkgMS41NzRoMy44NjZjLjE0IDAgLjI1Mi4xMS4yNTIuMjQ2djUuMTg2YS4yNS4yNSAwIDAxLS4yNTIuMjQ2SDYuMzQ0Yy0uOTc1IDAtMS43NjYuNzctMS43NjYgMS43MnYxLjE2MmEuMjUuMjUgMCAwMS0uMjUzLjI0M0gxLjg2N2EuMjUuMjUgMCAwMS0uMjUzLS4yNDZWNi4xNzdhLjI1LjI1IDAgMDEuMjUyLS4yNDZINy45OGMuNDE4IDAgLjc1Ny0uMzMuNzU3LS43MzdhLjc0Ny43NDcgMCAwMC0uNzU3LS43MzhINS41MzdWMS44MmEuMjUuMjUgMCAwMS4yNTMtLjI0NnptNS42MzIgMi41OTJWMS44MmMwLS45NS0uNzktMS43Mi0xLjc2Ni0xLjcySDUuNzljLS45NzYgMC0xLjc2Ny43Ny0xLjc2NyAxLjcydjIuNjM2SDEuODY3Qy44OSA0LjQ1Ni4xIDUuMjI2LjEgNi4xNzZ2My45NTVjMCAuOTUuNzkgMS43MiAxLjc2NiAxLjcyaDIuNDZjLjA4NSAwIC4xNy0uMDA2LjI1Mi0uMDE3djIuMzQ2YzAgLjk1Ljc5IDEuNzIgMS43NjYgMS43MmgzLjg2NmMuOTc2IDAgMS43NjctLjc3IDEuNzY3LTEuNzJ2LTIuNjM2aDIuMTU2Yy45NzYgMCAxLjc2Ny0uNzcgMS43NjctMS43MlY1Ljg2OGMwLS45NS0uNzktMS43Mi0xLjc2Ny0xLjcyaC0yLjQ1OGMtLjA4NiAwLS4xNy4wMDUtLjI1My4wMTd6bS01LjMzIDUuOTc0VjguOTk0YS4yNS4yNSAwIDAxLjI1Mi0uMjQ2aDMuMzEyYy45NzYgMCAxLjc2Ni0uNzcgMS43NjYtMS43MlY1Ljg2NmEuMjUuMjUgMCAwMS4yNTMtLjI0M2gyLjQ1OGMuMTQgMCAuMjUzLjExLjI1My4yNDZ2My45NTRhLjI1LjI1IDAgMDEtLjI1Mi4yNDZIOC4wMmEuNzQ3Ljc0NyAwIDAwLS43NTcuNzM3YzAgLjQwOC4zMzkuNzM4Ljc1Ny43MzhoMi40NDJ2Mi42MzZhLjI1LjI1IDAgMDEtLjI1My4yNDZINi4zNDRhLjI1LjI1IDAgMDEtLjI1Mi0uMjQ2di00LjA0eiIvPiYjeGE7PC9zdmc+;" vertex="1" parent="1">
          <mxGeometry x="1324" y="1847.5" width="34" height="34" as="geometry" />
        </mxCell>
        <mxCell id="gJZYsZQYxABZpz7uiAY4-3" value="Cache" style="shape=image;verticalLabelPosition=bottom;labelBackgroundColor=default;verticalAlign=top;aspect=fixed;imageAspect=0;image=data:image/svg+xml,PHN2ZyB4bWxucz0iaHR0cDovL3d3dy53My5vcmcvMjAwMC9zdmciIGZpbGw9Im5vbmUiIHZpZXdCb3g9IjAgMCAyNCAyNCIgaGVpZ2h0PSI4MDBweCIgd2lkdGg9IjgwMHB4Ij4mI3hhOzxnIGlkPSJGaWxlIC8gRmlsZXMiPiYjeGE7PHBhdGggc3Ryb2tlLWxpbmVqb2luPSJyb3VuZCIgc3Ryb2tlLWxpbmVjYXA9InJvdW5kIiBzdHJva2Utd2lkdGg9IjIiIHN0cm9rZT0iIzAwMDAwMCIgZD0iTTkgNkg5LjMzNjg3QzkuNTgxNDYgNiA5LjcwMzg1IDYgOS44MTg5MyA2LjAyNzYzQzkuOTIwOTcgNi4wNTIxMyAxMC4wMTg5IDYuMDkyNjMgMTAuMTA4NCA2LjE0NzQ2QzEwLjIwOTMgNi4yMDkyOCAxMC4yOTU5IDYuMjk1OTEgMTAuNDY4OCA2LjQ2ODc1TDEzLjUzMTUgOS41MzE0OUMxMy43MDQ0IDkuNzA0NDQgMTMuNzkwNCA5Ljc5MDQ0IDEzLjg1MjMgOS44OTEzNUMxMy45MDcxIDkuOTgwODIgMTMuOTQ4MiAxMC4wNzg2IDEzLjk3MjcgMTAuMTgwN0MxNCAxMC4yOTQ2IDE0IDEwLjQxNTUgMTQgMTAuNjU1MlYxOE05IDZINC41OTk2MUM0LjAzOTU2IDYgMy43NTk4MSA2IDMuNTQ1OSA2LjEwODk5QzMuMzU3NzQgNi4yMDQ4NyAzLjIwNDg3IDYuMzU3NzQgMy4xMDg5OSA2LjU0NTlDMyA2Ljc1OTgxIDMgNy4wNDAwNCAzIDcuNjAwMVYxOS40MDAxQzMgMTkuOTYwMSAzIDIwLjIzOTggMy4xMDg5OSAyMC40NTM3QzMuMjA0ODcgMjAuNjQxOSAzLjM1Nzc0IDIwLjc5NTIgMy41NDU5IDIwLjg5MTFDMy43NTk2IDIxIDQuMDM5MDIgMjEgNC41OTggMjFMMTIuNDAxMSAyMUMxMi45NiAyMSAxMy4yNDA1IDIxIDEzLjQ1NDIgMjAuODkxMUMxMy42NDIzIDIwLjc5NTIgMTMuNzk0OCAyMC42NDIxIDEzLjg5MDYgMjAuNDUzOUMxMy45OTk2IDIwLjI0IDE0IDE5Ljk1OTkgMTQgMTkuMzk5OVYxOE05IDZWOS40QzkgOS45NjAwNSA5IDEwLjIzOTkgOS4xMDg5OSAxMC40NTM4QzkuMjA0ODcgMTAuNjQyIDkuMzU3NzQgMTAuNzk1MiA5LjU0NTkgMTAuODkxMUM5Ljc1OTYgMTEgMTAuMDM5IDExIDEwLjU5OCAxMUgxMy45OTk2TTEwIDYuMDAwMVY0LjYwMDFDMTAgNC4wNDAwNSAxMCAzLjc1OTgxIDEwLjEwOSAzLjU0NTlDMTAuMjA0OSAzLjM1Nzc0IDEwLjM1NzcgMy4yMDQ4NyAxMC41NDU5IDMuMTA4OTlDMTAuNzU5OCAzIDExLjAzOTYgMyAxMS41OTk2IDNIMTZNMTYgM0gxNi4zMzY5QzE2LjU4MTUgMyAxNi43MDM4IDMgMTYuODE4OSAzLjAyNzYzQzE2LjkyMSAzLjA1MjEzIDE3LjAxODkgMy4wOTI2MyAxNy4xMDg0IDMuMTQ3NDZDMTcuMjA5MyAzLjIwOTI4IDE3LjI5NTkgMy4yOTU5MiAxNy40Njg4IDMuNDY4NzVMMjAuNTMxNSA2LjUzMTQ5QzIwLjcwNDQgNi43MDQ0NCAyMC43OTA0IDYuNzkwNDQgMjAuODUyMyA2Ljg5MTM1QzIwLjkwNzEgNi45ODA4MiAyMC45NDgyIDcuMDc4NjMgMjAuOTcyNyA3LjE4MDY2QzIxIDcuMjk0NTggMjEgNy40MTU1MiAyMSA3LjY1NTE1VjE2LjM5OTlDMjEgMTYuOTU5OSAyMC45OTk2IDE3LjI0IDIwLjg5MDYgMTcuNDUzOUMyMC43OTQ4IDE3LjY0MjEgMjAuNjQyOSAxNy43OTUyIDIwLjQ1NDggMTcuODkxMUMyMC4yNDExIDE4IDE5Ljk2MSAxOCAxOS40MDIgMThIMTRNMTYgM1Y2LjRDMTYgNi45NjAwNSAxNiA3LjIzOTg4IDE2LjEwOSA3LjQ1MzhDMTYuMjA0OSA3LjY0MTk2IDE2LjM1NzcgNy43OTUyNCAxNi41NDU5IDcuODkxMTFDMTYuNzU5NiA4IDE3LjAzOSA4IDE3LjU5OCA4SDIwLjk5OTYiIGlkPSJWZWN0b3IiLz4mI3hhOzwvZz4mI3hhOzwvc3ZnPg==;" vertex="1" parent="1">
          <mxGeometry x="1186" y="1925.75" width="32" height="32" as="geometry" />
        </mxCell>
        <mxCell id="gJZYsZQYxABZpz7uiAY4-4" value="Readings&#xa;Database" style="shape=image;verticalLabelPosition=bottom;labelBackgroundColor=default;verticalAlign=top;aspect=fixed;imageAspect=0;image=data:image/svg+xml,PHN2ZyB4bWxucz0iaHR0cDovL3d3dy53My5vcmcvMjAwMC9zdmciIHZlcnNpb249IjEuMSIgdmlld0JveD0iMCAwIDMyIDMyIiBoZWlnaHQ9IjgwMHB4IiB3aWR0aD0iODAwcHgiIGZpbGw9IiMwMDAwMDAiPiYjeGE7PHRpdGxlPmRhdGFiYXNlPC90aXRsZT4mI3hhOzxwYXRoIGQ9Ik00IDI2LjAxNnEwIDEuNjMyIDEuNiAzLjAwOHQ0LjM4NCAyLjE3NiA2LjAxNiAwLjggNi4wMTYtMC44IDQuMzg0LTIuMTc2IDEuNi0zLjAwOHYtMy4zOTJxMCAxLjYzMi0xLjYzMiAyLjg4dC00LjMyIDEuODU2LTYuMDQ4IDAuNjQtNi4wNDgtMC42NC00LjMyLTEuODU2LTEuNjMyLTIuODh2My4zOTJ6TTQgMjBxMCAxLjYzMiAxLjYgMy4wMDh0NC4zODQgMi4yMDggNi4wMTYgMC44IDYuMDE2LTAuOCA0LjM4NC0yLjIwOCAxLjYtMy4wMDh2LTMuMzZxMCAxLjYtMS42MzIgMi44NDh0LTQuMzIgMS44ODgtNi4wNDggMC42NC02LjA0OC0wLjY0LTQuMzItMS44ODgtMS42MzItMi44NDh2My4zNnpNNCAxNC4wMTZxMCAxLjYzMiAxLjYgMy4wMDh0NC4zODQgMi4xNzYgNi4wMTYgMC44IDYuMDE2LTAuOCA0LjM4NC0yLjE3NiAxLjYtMy4wMDh2LTMuMzkycTAgMS42MzItMS42MzIgMi44OHQtNC4zMiAxLjg1Ni02LjA0OCAwLjY0LTYuMDQ4LTAuNjQtNC4zMi0xLjg1Ni0xLjYzMi0yLjg4djMuMzkyek00IDhxMCAxLjYzMiAxLjYgMy4wMDh0NC4zODQgMi4yMDggNi4wMTYgMC44IDYuMDE2LTAuOCA0LjM4NC0yLjIwOCAxLjYtMy4wMDh2LTEuOTg0cTAtMS42MzItMS42LTMuMDA4dC00LjM4NC0yLjE3Ni02LjAxNi0wLjgzMi02LjAxNiAwLjgzMi00LjM4NCAyLjE3Ni0xLjYgMy4wMDh2MS45ODR6Ii8+JiN4YTs8L3N2Zz4=;" vertex="1" parent="1">
          <mxGeometry x="1190" y="1845.75" width="34" height="34" as="geometry" />
        </mxCell>
        <mxCell id="gJZYsZQYxABZpz7uiAY4-5" value="Metadata&#xa;Database" style="shape=image;verticalLabelPosition=bottom;labelBackgroundColor=default;verticalAlign=top;aspect=fixed;imageAspect=0;image=data:image/svg+xml,PHN2ZyB4bWxucz0iaHR0cDovL3d3dy53My5vcmcvMjAwMC9zdmciIHZlcnNpb249IjEuMSIgdmlld0JveD0iMCAwIDMyIDMyIiBoZWlnaHQ9IjgwMHB4IiB3aWR0aD0iODAwcHgiIGZpbGw9IiMwMDAwMDAiPiYjeGE7PHRpdGxlPmRhdGFiYXNlPC90aXRsZT4mI3hhOzxwYXRoIGQ9Ik00IDI2LjAxNnEwIDEuNjMyIDEuNiAzLjAwOHQ0LjM4NCAyLjE3NiA2LjAxNiAwLjggNi4wMTYtMC44IDQuMzg0LTIuMTc2IDEuNi0zLjAwOHYtMy4zOTJxMCAxLjYzMi0xLjYzMiAyLjg4dC00LjMyIDEuODU2LTYuMDQ4IDAuNjQtNi4wNDgtMC42NC00LjMyLTEuODU2LTEuNjMyLTIuODh2My4zOTJ6TTQgMjBxMCAxLjYzMiAxLjYgMy4wMDh0NC4zODQgMi4yMDggNi4wMTYgMC44IDYuMDE2LTAuOCA0LjM4NC0yLjIwOCAxLjYtMy4wMDh2LTMuMzZxMCAxLjYtMS42MzIgMi44NDh0LTQuMzIgMS44ODgtNi4wNDggMC42NC02LjA0OC0wLjY0LTQuMzItMS44ODgtMS42MzItMi44NDh2My4zNnpNNCAxNC4wMTZxMCAxLjYzMiAxLjYgMy4wMDh0NC4zODQgMi4xNzYgNi4wMTYgMC44IDYuMDE2LTAuOCA0LjM4NC0yLjE3NiAxLjYtMy4wMDh2LTMuMzkycTAgMS42MzItMS42MzIgMi44OHQtNC4zMiAxLjg1Ni02LjA0OCAwLjY0LTYuMDQ4LTAuNjQtNC4zMi0xLjg1Ni0xLjYzMi0yLjg4djMuMzkyek00IDhxMCAxLjYzMiAxLjYgMy4wMDh0NC4zODQgMi4yMDggNi4wMTYgMC44IDYuMDE2LTAuOCA0LjM4NC0yLjIwOCAxLjYtMy4wMDh2LTEuOTg0cTAtMS42MzItMS42LTMuMDA4dC00LjM4NC0yLjE3Ni02LjAxNi0wLjgzMi02LjAxNiAwLjgzMi00LjM4NCAyLjE3Ni0xLjYgMy4wMDh2MS45ODR6Ii8+JiN4YTs8L3N2Zz4=;" vertex="1" parent="1">
          <mxGeometry x="1190" y="1773.25" width="34" height="34" as="geometry" />
        </mxCell>
        <mxCell id="gJZYsZQYxABZpz7uiAY4-6" value="" style="shape=flexArrow;endArrow=classic;startArrow=classic;html=1;rounded=0;strokeWidth=3;" edge="1" parent="1">
          <mxGeometry width="100" height="100" relative="1" as="geometry">
            <mxPoint x="1236" y="1948.25" as="sourcePoint" />
            <mxPoint x="1295.5" y="1947.75" as="targetPoint" />
          </mxGeometry>
        </mxCell>
        <mxCell id="gJZYsZQYxABZpz7uiAY4-7" value="" style="shape=flexArrow;endArrow=classic;html=1;rounded=0;strokeWidth=3;" edge="1" parent="1">
          <mxGeometry width="50" height="50" relative="1" as="geometry">
            <mxPoint x="1394" y="1865.5" as="sourcePoint" />
            <mxPoint x="1434" y="1865" as="targetPoint" />
          </mxGeometry>
        </mxCell>
        <mxCell id="gJZYsZQYxABZpz7uiAY4-8" value="&quot;Useful&quot;&#xa;Files" style="shape=image;verticalLabelPosition=bottom;labelBackgroundColor=default;verticalAlign=top;aspect=fixed;imageAspect=0;image=data:image/svg+xml,PHN2ZyB4bWxucz0iaHR0cDovL3d3dy53My5vcmcvMjAwMC9zdmciIGZpbGw9Im5vbmUiIHZpZXdCb3g9IjAgMCAyNCAyNCIgaGVpZ2h0PSI4MDBweCIgd2lkdGg9IjgwMHB4Ij4mI3hhOzxnIGlkPSJGaWxlIC8gRmlsZXMiPiYjeGE7PHBhdGggc3Ryb2tlLWxpbmVqb2luPSJyb3VuZCIgc3Ryb2tlLWxpbmVjYXA9InJvdW5kIiBzdHJva2Utd2lkdGg9IjIiIHN0cm9rZT0iIzAwMDAwMCIgZD0iTTkgNkg5LjMzNjg3QzkuNTgxNDYgNiA5LjcwMzg1IDYgOS44MTg5MyA2LjAyNzYzQzkuOTIwOTcgNi4wNTIxMyAxMC4wMTg5IDYuMDkyNjMgMTAuMTA4NCA2LjE0NzQ2QzEwLjIwOTMgNi4yMDkyOCAxMC4yOTU5IDYuMjk1OTEgMTAuNDY4OCA2LjQ2ODc1TDEzLjUzMTUgOS41MzE0OUMxMy43MDQ0IDkuNzA0NDQgMTMuNzkwNCA5Ljc5MDQ0IDEzLjg1MjMgOS44OTEzNUMxMy45MDcxIDkuOTgwODIgMTMuOTQ4MiAxMC4wNzg2IDEzLjk3MjcgMTAuMTgwN0MxNCAxMC4yOTQ2IDE0IDEwLjQxNTUgMTQgMTAuNjU1MlYxOE05IDZINC41OTk2MUM0LjAzOTU2IDYgMy43NTk4MSA2IDMuNTQ1OSA2LjEwODk5QzMuMzU3NzQgNi4yMDQ4NyAzLjIwNDg3IDYuMzU3NzQgMy4xMDg5OSA2LjU0NTlDMyA2Ljc1OTgxIDMgNy4wNDAwNCAzIDcuNjAwMVYxOS40MDAxQzMgMTkuOTYwMSAzIDIwLjIzOTggMy4xMDg5OSAyMC40NTM3QzMuMjA0ODcgMjAuNjQxOSAzLjM1Nzc0IDIwLjc5NTIgMy41NDU5IDIwLjg5MTFDMy43NTk2IDIxIDQuMDM5MDIgMjEgNC41OTggMjFMMTIuNDAxMSAyMUMxMi45NiAyMSAxMy4yNDA1IDIxIDEzLjQ1NDIgMjAuODkxMUMxMy42NDIzIDIwLjc5NTIgMTMuNzk0OCAyMC42NDIxIDEzLjg5MDYgMjAuNDUzOUMxMy45OTk2IDIwLjI0IDE0IDE5Ljk1OTkgMTQgMTkuMzk5OVYxOE05IDZWOS40QzkgOS45NjAwNSA5IDEwLjIzOTkgOS4xMDg5OSAxMC40NTM4QzkuMjA0ODcgMTAuNjQyIDkuMzU3NzQgMTAuNzk1MiA5LjU0NTkgMTAuODkxMUM5Ljc1OTYgMTEgMTAuMDM5IDExIDEwLjU5OCAxMUgxMy45OTk2TTEwIDYuMDAwMVY0LjYwMDFDMTAgNC4wNDAwNSAxMCAzLjc1OTgxIDEwLjEwOSAzLjU0NTlDMTAuMjA0OSAzLjM1Nzc0IDEwLjM1NzcgMy4yMDQ4NyAxMC41NDU5IDMuMTA4OTlDMTAuNzU5OCAzIDExLjAzOTYgMyAxMS41OTk2IDNIMTZNMTYgM0gxNi4zMzY5QzE2LjU4MTUgMyAxNi43MDM4IDMgMTYuODE4OSAzLjAyNzYzQzE2LjkyMSAzLjA1MjEzIDE3LjAxODkgMy4wOTI2MyAxNy4xMDg0IDMuMTQ3NDZDMTcuMjA5MyAzLjIwOTI4IDE3LjI5NTkgMy4yOTU5MiAxNy40Njg4IDMuNDY4NzVMMjAuNTMxNSA2LjUzMTQ5QzIwLjcwNDQgNi43MDQ0NCAyMC43OTA0IDYuNzkwNDQgMjAuODUyMyA2Ljg5MTM1QzIwLjkwNzEgNi45ODA4MiAyMC45NDgyIDcuMDc4NjMgMjAuOTcyNyA3LjE4MDY2QzIxIDcuMjk0NTggMjEgNy40MTU1MiAyMSA3LjY1NTE1VjE2LjM5OTlDMjEgMTYuOTU5OSAyMC45OTk2IDE3LjI0IDIwLjg5MDYgMTcuNDUzOUMyMC43OTQ4IDE3LjY0MjEgMjAuNjQyOSAxNy43OTUyIDIwLjQ1NDggMTcuODkxMUMyMC4yNDExIDE4IDE5Ljk2MSAxOCAxOS40MDIgMThIMTRNMTYgM1Y2LjRDMTYgNi45NjAwNSAxNiA3LjIzOTg4IDE2LjEwOSA3LjQ1MzhDMTYuMjA0OSA3LjY0MTk2IDE2LjM1NzcgNy43OTUyNCAxNi41NDU5IDcuODkxMTFDMTYuNzU5NiA4IDE3LjAzOSA4IDE3LjU5OCA4SDIwLjk5OTYiIGlkPSJWZWN0b3IiLz4mI3hhOzwvZz4mI3hhOzwvc3ZnPg==;" vertex="1" parent="1">
          <mxGeometry x="1460" y="1849.5" width="32" height="32" as="geometry" />
        </mxCell>
        <mxCell id="gJZYsZQYxABZpz7uiAY4-11" value="" style="shape=flexArrow;endArrow=classic;html=1;rounded=0;strokeWidth=3;" edge="1" parent="1">
          <mxGeometry width="50" height="50" relative="1" as="geometry">
            <mxPoint x="1250" y="1790.25" as="sourcePoint" />
            <mxPoint x="1290" y="1789.75" as="targetPoint" />
          </mxGeometry>
        </mxCell>
      </root>
    </mxGraphModel>
  </diagram>
</mxfile>
